<?xml version="1.0" encoding="UTF-8" standalone="no"?>
<!-- Created with Inkscape (http://www.inkscape.org/) -->

<svg
   width="71.749123mm"
   height="31.032263mm"
   viewBox="0 0 71.749123 31.032263"
   version="1.1"
   id="svg1"
   inkscape:version="1.4.2 (ebf0e940, 2025-05-08)"
   sodipodi:docname="logo.svg"
   xmlns:inkscape="http://www.inkscape.org/namespaces/inkscape"
   xmlns:sodipodi="http://sodipodi.sourceforge.net/DTD/sodipodi-0.dtd"
   xmlns="http://www.w3.org/2000/svg"
   xmlns:svg="http://www.w3.org/2000/svg">
  <sodipodi:namedview
     id="namedview1"
     pagecolor="#505050"
     bordercolor="#eeeeee"
     borderopacity="1"
     inkscape:showpageshadow="0"
     inkscape:pageopacity="0"
     inkscape:pagecheckerboard="0"
     inkscape:deskcolor="#505050"
     inkscape:document-units="mm"
     inkscape:zoom="0.89887065"
     inkscape:cx="134.61336"
     inkscape:cy="58.406624"
     inkscape:window-width="976"
     inkscape:window-height="1186"
     inkscape:window-x="3360"
     inkscape:window-y="804"
     inkscape:window-maximized="0"
     inkscape:current-layer="layer1" />
  <defs
     id="defs1" />
  <g
     inkscape:label="Layer 1"
     inkscape:groupmode="layer"
     id="layer1"
     transform="translate(-69.320835,-133.08542)">
    <g
       id="g1">
      <path
         id="path152"
         d="m 102.69975,146.26513 c -0.24976,0.54716 -0.52599,1.10455 -0.85231,1.65171 -0.18485,0.33831 -0.40428,0.66145 -0.61242,0.99659 -0.21802,0.32809 -0.44627,0.65441 -0.6791,0.97931 -0.47766,0.64241 -0.981072,1.27671 -1.516589,1.8789 -0.269523,0.29986 -0.531989,0.60501 -0.814564,0.88865 -0.2794,0.28645 -0.548569,0.57996 -0.837494,0.84878 -0.286808,0.27058 -0.559506,0.55033 -0.849138,0.80574 -0.28716,0.25683 -0.570442,0.51012 -0.849487,0.75989 -0.574675,0.47872 -1.121481,0.94897 -1.666875,1.36172 -0.533048,0.42721 -1.056217,0.80539 -1.537406,1.15499 -0.475192,0.35772 -0.934509,0.65264 -1.329619,0.92922 -0.395465,0.27658 -0.750358,0.50236 -1.042106,0.68897 -0.582084,0.37395 -0.9144,0.58773 -0.9144,0.58773 0,0 0.311856,-0.24271 0.857602,-0.66745 0.27305,-0.21238 0.605366,-0.46779 0.972962,-0.77823 0.367594,-0.30974 0.795512,-0.64241 1.234369,-1.03929 0.444852,-0.38946 0.926748,-0.80927 1.414285,-1.2774 0.499888,-0.45438 0.99554,-0.96591 1.515182,-1.48449 0.250118,-0.26847 0.504473,-0.54116 0.762,-0.81739 0.259998,-0.2734 0.500591,-0.57009 0.754943,-0.8576 0.256471,-0.28575 0.491067,-0.59337 0.735542,-0.89394 0.24765,-0.29739 0.472723,-0.61419 0.705204,-0.92428 0.460727,-0.623 0.883709,-1.26964 1.279171,-1.91417 0.190854,-0.32596 0.377121,-0.65087 0.55245,-0.97472 0.165098,-0.3295 0.342198,-0.64735 0.483658,-0.97367 0.30868,-0.64241 0.54434,-1.28411 0.75071,-1.89195 0.0191,-0.0586 0.0349,-0.11536 0.0529,-0.17286 -1.848557,-0.91405 -8.213022,-3.07728 -12.69224,7.53181 -5.291315,12.53207 -12.532431,8.63353 -12.532431,8.63353 0,0 10.641896,6.70701 21.384683,-0.55704 8.770758,-5.93055 7.986888,-11.52807 5.270498,-14.47306"
         style="fill:#00f0ff;fill-opacity:1;fill-rule:nonzero;stroke:none;stroke-width:0.0352777" />
      <path
         id="path153"
         d="m 91.930506,144.21232 c -0.202496,0.0416 -0.406048,0.0836 -0.610306,0.12523 -0.101952,0.0222 -0.205317,0.0388 -0.306917,0.0656 l -0.301977,0.0889 c -0.41275,0.12136 -0.826912,0.24236 -1.241073,0.36442 -0.418393,0.12276 -0.837141,0.24518 -1.253773,0.36759 l -0.31256,0.0914 -0.331258,0.0702 c -0.220486,0.0455 -0.439915,0.091 -0.65899,0.13653 -0.218369,0.0416 -0.434621,0.0974 -0.651579,0.1263 -0.216958,0.0254 -0.433213,0.0508 -0.6477,0.0762 -0.214138,0.0247 -0.426863,0.0494 -0.638175,0.0741 -0.212021,0.0145 -0.424392,0.0152 -0.633942,0.0229 -0.208846,0.006 -0.416631,0.012 -0.621948,0.018 -0.204964,0.007 -0.408868,-0.019 -0.609952,-0.0265 -0.200554,-0.012 -0.39924,-0.0236 -0.595206,-0.0353 -0.195969,-0.009 -0.387633,-0.0512 -0.576969,-0.0744 -0.18909,-0.0279 -0.375674,-0.055 -0.559083,-0.0819 -0.183161,-0.0282 -0.359796,-0.0801 -0.535234,-0.11747 -0.174447,-0.0413 -0.34604,-0.0811 -0.514421,-0.121 -0.166333,-0.0473 -0.327131,-0.10301 -0.485632,-0.1524 -0.157623,-0.0512 -0.311963,-0.1016 -0.463021,-0.15064 -0.146616,-0.06 -0.290478,-0.11853 -0.430356,-0.17568 -0.138747,-0.0593 -0.277669,-0.1076 -0.40541,-0.17145 -0.128024,-0.0628 -0.252307,-0.12453 -0.372888,-0.18415 -0.480801,-0.23742 -0.87644,-0.48825 -1.193271,-0.70415 -0.315841,-0.21766 -0.549132,-0.40816 -0.704567,-0.54186 -0.153529,-0.13547 -0.229729,-0.21379 -0.229729,-0.21379 0,0 0.08255,0.0716 0.245993,0.19403 0.165063,0.11959 0.411621,0.28998 0.740834,0.47907 0.330022,0.18698 0.738751,0.40146 1.228513,0.59549 0.122095,0.0483 0.248179,0.0984 0.378143,0.14993 0.12954,0.0519 0.26938,0.0882 0.408834,0.13441 0.140298,0.0445 0.284019,0.09 0.431199,0.13617 0.150355,0.0356 0.304131,0.072 0.461082,0.10901 0.157231,0.0353 0.316264,0.0765 0.480128,0.10936 0.165489,0.0243 0.334293,0.0497 0.505884,0.0748 0.171839,0.0226 0.343818,0.0586 0.522393,0.0713 0.178189,0.0113 0.35927,0.0229 0.542679,0.0346 0.183409,0.007 0.367665,0.0332 0.556472,0.0261 0.188206,-0.005 0.378531,-0.008 0.571394,-0.0134 0.19191,-0.008 0.385939,10e-4 0.581377,-0.0222 0.194733,-0.0215 0.391583,-0.0437 0.590198,-0.066 0.197908,-0.0236 0.397933,-0.0399 0.597958,-0.0698 0.198615,-0.0402 0.398992,-0.0804 0.600075,-0.12136 0.200731,-0.0402 0.402873,-0.0808 0.605719,-0.121 0.201789,-0.0441 0.395816,-0.11253 0.595137,-0.16686 0.197554,-0.0582 0.396169,-0.11642 0.595136,-0.17427 l 0.29845,-0.0868 0.303741,-0.11712 c 0.405694,-0.15593 0.8128,-0.31221 1.219907,-0.46919 0.411337,-0.15805 0.823029,-0.31609 1.232604,-0.47414 l 0.313973,-0.11959 c 0.105127,-0.037 0.214489,-0.0649 0.321027,-0.0974 0.215196,-0.0628 0.429683,-0.12558 0.643114,-0.18803 0.21449,-0.06 0.425802,-0.12947 0.640644,-0.18132 0.217665,-0.0441 0.434271,-0.0879 0.649113,-0.13159 0.216252,-0.0434 0.430741,-0.0864 0.643466,-0.12876 0.214487,-0.0381 0.431094,-0.0536 0.644525,-0.0808 0.213784,-0.024 0.426154,-0.048 0.636762,-0.0716 0.210257,-0.03 0.421924,-0.0187 0.629709,-0.03 0.416983,-0.0113 0.826206,-0.03 1.22555,0.007 0.200025,0.0124 0.397229,0.024 0.591256,0.0356 0.02716,0.001 0.05362,0.006 0.08008,0.008 1.221668,-0.0452 2.568575,0.12594 4.054122,0.58526 0,0 -3.896785,-8.71079 -14.784564,-4.4704 -10.887853,4.24074 -17.306361,-4.12538 -17.306361,-4.12538 0,0 0.18796,16.8349 17.535665,17.76447 0,0 1.381125,-5.06095 5.221465,-7.89516 -0.04939,0.0102 -0.09807,0.0208 -0.147461,0.0303"
         style="fill:#00f0ff;fill-opacity:1;fill-rule:nonzero;stroke:none;stroke-width:0.0352777" />
      <path
         id="path154"
         d="m 107.69156,146.26513 c 0.24976,0.54716 0.52599,1.10455 0.85196,1.65171 0.18556,0.33831 0.40463,0.66145 0.61277,0.99659 0.21837,0.32809 0.44626,0.65441 0.67945,0.97931 0.47731,0.64241 0.98072,1.27671 1.51624,1.8789 0.26987,0.29986 0.53234,0.60501 0.81456,0.88865 0.2794,0.28645 0.54893,0.57996 0.8375,0.84878 0.28681,0.27058 0.5595,0.55033 0.84913,0.80574 0.28716,0.25683 0.57045,0.51012 0.84949,0.75989 0.57468,0.47872 1.12148,0.94897 1.66688,1.36172 0.53304,0.42721 1.05621,0.80539 1.53705,1.15499 0.47554,0.35772 0.93486,0.65264 1.32997,0.92922 0.39547,0.27658 0.75036,0.50236 1.04211,0.68897 0.58208,0.37395 0.9144,0.58773 0.9144,0.58773 0,0 -0.3115,-0.24271 -0.85725,-0.66745 -0.27305,-0.21238 -0.60537,-0.46779 -0.97332,-0.77823 -0.36794,-0.30974 -0.79551,-0.64241 -1.23437,-1.03929 -0.4445,-0.38946 -0.9271,-0.80927 -1.41428,-1.2774 -0.49989,-0.45438 -0.99519,-0.96591 -1.51518,-1.48449 -0.25012,-0.26847 -0.50447,-0.54116 -0.762,-0.81739 -0.26,-0.2734 -0.50059,-0.57009 -0.75495,-0.8576 -0.25611,-0.28575 -0.49071,-0.59337 -0.73554,-0.89394 -0.24765,-0.29739 -0.47272,-0.61419 -0.7052,-0.92428 -0.46073,-0.623 -0.88371,-1.26964 -1.27917,-1.91417 -0.19121,-0.32596 -0.37712,-0.65087 -0.55245,-0.97472 -0.1651,-0.3295 -0.34184,-0.64735 -0.48366,-0.97367 -0.30868,-0.64241 -0.54434,-1.28411 -0.75071,-1.89195 -0.019,-0.0586 -0.0349,-0.11536 -0.0526,-0.17286 1.84856,-0.91405 8.21267,-3.07728 12.69189,7.53181 5.29167,12.53207 12.53278,8.63353 12.53278,8.63353 0,0 -10.64225,6.70701 -21.38468,-0.55704 -8.77111,-5.93055 -7.98724,-11.52807 -5.27085,-14.47306"
         style="fill:#00f0ff;fill-opacity:1;fill-rule:nonzero;stroke:none;stroke-width:0.0352777" />
      <path
         id="path155"
         d="m 118.4608,144.21232 c 0.20285,0.0416 0.4064,0.0836 0.61031,0.12523 0.10195,0.0222 0.20532,0.0388 0.30692,0.0656 l 0.30233,0.0889 c 0.41239,0.12136 0.82656,0.24236 1.24072,0.36442 0.41839,0.12276 0.83714,0.24518 1.25412,0.36759 l 0.31221,0.0914 0.33126,0.0702 c 0.22048,0.0455 0.44026,0.091 0.65863,0.13653 0.21908,0.0416 0.43498,0.0974 0.65229,0.1263 0.21696,0.0254 0.43286,0.0508 0.6477,0.0762 0.21378,0.0247 0.42686,0.0494 0.63782,0.0741 0.21237,0.0145 0.42475,0.0152 0.63394,0.0229 0.20885,0.006 0.41628,0.012 0.62195,0.018 0.20497,0.007 0.40922,-0.019 0.60995,-0.0265 0.20073,-0.012 0.39935,-0.0236 0.59514,-0.0353 0.19614,-0.009 0.3877,-0.0512 0.57714,-0.0744 0.18909,-0.0279 0.37571,-0.055 0.55916,-0.0819 0.18309,-0.0282 0.35983,-0.0801 0.53516,-0.11747 0.17463,-0.0413 0.34608,-0.0811 0.5147,-0.121 0.16616,-0.0473 0.32703,-0.10301 0.48507,-0.1524 0.1577,-0.0512 0.31221,-0.1016 0.4632,-0.15064 0.14676,-0.06 0.29034,-0.11853 0.43074,-0.17568 0.13864,-0.0593 0.27728,-0.1076 0.40534,-0.17145 0.12771,-0.0628 0.25224,-0.12453 0.37254,-0.18415 0.48119,-0.23742 0.877,-0.48825 1.1938,-0.70415 0.31573,-0.21766 0.54857,-0.40816 0.70414,-0.54186 0.15346,-0.13547 0.23001,-0.21379 0.23001,-0.21379 0,0 -0.0829,0.0716 -0.24624,0.19403 -0.1651,0.11959 -0.41169,0.28998 -0.74083,0.47907 -0.32985,0.18698 -0.73872,0.40146 -1.22837,0.59549 -0.12206,0.0483 -0.24836,0.0984 -0.37818,0.14993 -0.12947,0.0519 -0.26988,0.0882 -0.40922,0.13441 -0.14006,0.0445 -0.28399,0.09 -0.4311,0.13617 -0.15028,0.0356 -0.30374,0.072 -0.46143,0.10901 -0.15699,0.0353 -0.31538,0.0765 -0.47943,0.10936 -0.1658,0.0243 -0.33443,0.0497 -0.50588,0.0748 -0.1718,0.0226 -0.34431,0.0586 -0.52246,0.0713 -0.17851,0.0113 -0.35913,0.0229 -0.54257,0.0346 -0.1838,0.007 -0.3676,0.0332 -0.55669,0.0261 -0.18803,-0.005 -0.37888,-0.008 -0.57115,-0.0134 -0.19226,-0.008 -0.38629,10e-4 -0.58137,-0.0222 -0.19509,-0.0215 -0.39194,-0.0437 -0.59055,-0.066 -0.19791,-0.0236 -0.39758,-0.0399 -0.59761,-0.0698 -0.19897,-0.0402 -0.39899,-0.0804 -0.60043,-0.12136 -0.20073,-0.0402 -0.40287,-0.0808 -0.60536,-0.121 -0.20179,-0.0441 -0.39617,-0.11253 -0.59549,-0.16686 -0.19756,-0.0582 -0.39617,-0.11642 -0.59514,-0.17427 l -0.29809,-0.0868 -0.30375,-0.11712 c -0.40569,-0.15593 -0.81315,-0.31221 -1.22025,-0.46919 -0.41134,-0.15805 -0.82268,-0.31609 -1.23261,-0.47414 l -0.31362,-0.11959 c -0.10583,-0.037 -0.21449,-0.0649 -0.32138,-0.0974 -0.21484,-0.0628 -0.42968,-0.12558 -0.64276,-0.18803 -0.21484,-0.06 -0.42616,-0.12947 -0.64135,-0.18132 -0.21731,-0.0441 -0.43392,-0.0879 -0.64876,-0.13159 -0.2159,-0.0434 -0.43074,-0.0864 -0.64347,-0.12876 -0.21413,-0.0381 -0.43109,-0.0536 -0.64417,-0.0808 -0.21413,-0.024 -0.42651,-0.048 -0.63676,-0.0716 -0.21026,-0.03 -0.42228,-0.0187 -0.63006,-0.03 -0.41699,-0.0113 -0.82621,-0.03 -1.22555,0.007 -0.20003,0.0124 -0.39723,0.024 -0.59126,0.0356 -0.0272,0.001 -0.0533,0.006 -0.0801,0.008 -1.22132,-0.0452 -2.56857,0.12594 -4.05412,0.58526 0,0 3.89678,-8.71079 14.78456,-4.4704 10.88813,4.24074 17.30587,-4.12538 17.30587,-4.12538 0,0 -0.18733,16.8349 -17.53482,17.76447 0,0 -1.38148,-5.06095 -5.22146,-7.89516 0.049,0.0102 0.0977,0.0208 0.1471,0.0303"
         style="fill:#00f0ff;fill-opacity:1;fill-rule:nonzero;stroke:none;stroke-width:0.0352777" />
      <path
         id="path156"
         d="m 105.30854,139.6576 c -3.28189,0 -2.73473,3.55565 -2.73473,3.55565 1.95545,1.81539 2.73473,4.32082 2.73473,4.32082 0,0 0.77929,-2.50543 2.73474,-4.32082 0,0 0.5468,-3.55565 -2.73474,-3.55565"
         style="fill:#0a0f24;fill-opacity:1;fill-rule:nonzero;stroke:none;stroke-width:0.0352777" />
      <path
         id="path158"
         d="m 103.17741,138.85327 c -0.0363,-0.0427 -0.0892,-0.10513 -0.15663,-0.18486 -0.13547,-0.15522 -0.33126,-0.37359 -0.58032,-0.61947 -0.24553,-0.24942 -0.54716,-0.52494 -0.87806,-0.80892 -0.1704,-0.13688 -0.33902,-0.28646 -0.52388,-0.42193 -0.18133,-0.1397 -0.36724,-0.27904 -0.55986,-0.40886 -0.18838,-0.13583 -0.38417,-0.25965 -0.578552,-0.3803 -0.1905,-0.12559 -0.38876,-0.23107 -0.57785,-0.33831 -0.113241,-0.067 -0.226835,-0.12524 -0.339373,-0.18098 l -0.05115,0.10936 c 0.105127,0.061 0.211315,0.12383 0.317148,0.19579 0.179917,0.11748 0.368652,0.23319 0.548217,0.36901 0.18415,0.12982 0.369,0.26388 0.54574,0.40922 0.18133,0.13829 0.3549,0.28681 0.52423,0.43427 0.17251,0.14358 0.32879,0.30057 0.48648,0.4438 0.30621,0.29809 0.58279,0.5842 0.80645,0.84172 0.22649,0.25365 0.40217,0.47555 0.52247,0.63148 0.0582,0.078 0.10371,0.13934 0.13476,0.18062 0.0303,0.043 0.0462,0.066 0.0462,0.066 0,0 -0.0134,-0.0967 0.14464,-0.20532 0.1584,-0.10866 0.2226,-0.066 0.2226,-0.066 0,0 -0.0187,-0.0229 -0.0533,-0.0663"
         style="fill:#0a0f24;fill-opacity:1;fill-rule:nonzero;stroke:none;stroke-width:0.0352777" />
      <path
         id="path160"
         d="m 104.6806,138.44334 c -0.01,-0.0543 -0.0243,-0.13511 -0.0423,-0.23812 -0.0399,-0.20214 -0.10055,-0.48895 -0.19262,-0.82656 -0.0875,-0.33973 -0.21096,-0.72849 -0.35525,-1.14053 -0.0787,-0.20355 -0.14993,-0.41699 -0.24236,-0.62689 -0.0868,-0.21166 -0.17815,-0.4251 -0.2801,-0.63465 -0.0949,-0.21131 -0.2025,-0.41733 -0.31009,-0.61841 -0.10231,-0.20426 -0.22084,-0.39512 -0.33091,-0.58209 -0.0646,-0.11465 -0.13405,-0.22225 -0.20355,-0.32667 l -0.0991,0.0691 c 0.0607,0.10513 0.121,0.21273 0.17674,0.32809 0.0974,0.19155 0.20249,0.38629 0.29034,0.59408 0.0938,0.20425 0.18697,0.41275 0.26775,0.62688 0.0871,0.21096 0.16334,0.4258 0.23566,0.63888 0.0776,0.21061 0.13441,0.42475 0.19932,0.62795 0.11571,0.41063 0.21237,0.79692 0.27693,1.13171 0.0688,0.33337 0.10971,0.61348 0.13582,0.80856 0.0116,0.0963 0.0201,0.17216 0.0261,0.22402 0.005,0.0522 0.007,0.0801 0.007,0.0801 0,0 0.0363,-0.09 0.22789,-0.10548 0.19156,-0.0145 0.22543,0.0547 0.22543,0.0547 0,0 -0.005,-0.0289 -0.013,-0.0847"
         style="fill:#0a0f24;fill-opacity:1;fill-rule:nonzero;stroke:none;stroke-width:0.0352777" />
      <path
         id="path162"
         d="m 105.83242,138.44334 c 0.01,-0.0543 0.024,-0.13511 0.0423,-0.23812 0.0402,-0.20214 0.10019,-0.48895 0.19262,-0.82656 0.0875,-0.33973 0.21096,-0.72849 0.35525,-1.14053 0.0787,-0.20355 0.15028,-0.41699 0.24235,-0.62689 0.0871,-0.21166 0.17816,-0.4251 0.28011,-0.63465 0.0949,-0.21131 0.20249,-0.41733 0.31044,-0.61841 0.10196,-0.20426 0.22049,-0.39512 0.33056,-0.58209 0.0646,-0.11465 0.13405,-0.22225 0.20355,-0.32667 l 0.0991,0.0691 c -0.0607,0.10513 -0.121,0.21273 -0.17674,0.32809 -0.097,0.19155 -0.2025,0.38629 -0.29034,0.59408 -0.0938,0.20425 -0.18697,0.41275 -0.2674,0.62688 -0.0875,0.21096 -0.16334,0.4258 -0.23601,0.63888 -0.0776,0.21061 -0.13441,0.42475 -0.19897,0.62795 -0.11606,0.41063 -0.21237,0.79692 -0.27728,1.13171 -0.0688,0.33337 -0.10972,0.61348 -0.13617,0.80856 -0.0109,0.0963 -0.0198,0.17216 -0.0258,0.22402 -0.005,0.0522 -0.007,0.0801 -0.007,0.0801 0,0 -0.0363,-0.09 -0.22789,-0.10548 -0.19156,-0.0145 -0.22543,0.0547 -0.22543,0.0547 0,0 0.004,-0.0289 0.013,-0.0847"
         style="fill:#0a0f24;fill-opacity:1;fill-rule:nonzero;stroke:none;stroke-width:0.0352777" />
      <path
         id="path164"
         d="m 107.26399,138.85327 c 0.0367,-0.0427 0.0892,-0.10513 0.15663,-0.18486 0.13582,-0.15522 0.33126,-0.37359 0.58032,-0.61947 0.24589,-0.24942 0.54751,-0.52494 0.87842,-0.80892 0.17004,-0.13688 0.33902,-0.28646 0.52352,-0.42193 0.18133,-0.1397 0.36724,-0.27904 0.56021,-0.40886 0.18803,-0.13583 0.38418,-0.25965 0.57821,-0.3803 0.19085,-0.12559 0.38911,-0.23107 0.57785,-0.33831 0.11359,-0.067 0.22718,-0.12524 0.33972,-0.18098 l 0.0511,0.10936 c -0.10548,0.061 -0.21131,0.12383 -0.31714,0.19579 -0.18027,0.11748 -0.36866,0.23319 -0.54857,0.36901 -0.1838,0.12982 -0.36866,0.26388 -0.5454,0.40922 -0.18133,0.13829 -0.35489,0.28681 -0.52423,0.43427 -0.1725,0.14358 -0.32878,0.30057 -0.48683,0.4438 -0.30586,0.29809 -0.58279,0.5842 -0.8061,0.84172 -0.22683,0.25365 -0.40252,0.47555 -0.52281,0.63148 -0.0579,0.078 -0.10337,0.13934 -0.13441,0.18062 -0.0303,0.043 -0.0466,0.066 -0.0466,0.066 0,0 0.0138,-0.0967 -0.14464,-0.20532 -0.15839,-0.10866 -0.22225,-0.066 -0.22225,-0.066 0,0 0.0183,-0.0229 0.0529,-0.0663"
         style="fill:#0a0f24;fill-opacity:1;fill-rule:nonzero;stroke:none;stroke-width:0.0352777" />
      <path
         id="path157"
         d="m 100.61413,134.90498 c -1.19627,-0.63218 -1.947687,0.61277 -1.947687,0.61277 -0.524578,0.58632 -0.530928,1.52824 0.42898,2.08528 1.012117,0.58807 0.935567,-1.2573 0.935567,-1.2573 0.16863,-0.2593 1.69404,-0.85373 0.58314,-1.44075"
         style="fill:#00ffa3;fill-opacity:1;fill-rule:nonzero;stroke:none;stroke-width:0.0352777" />
      <path
         id="path159"
         d="m 104.43824,133.74223 c -0.71896,-1.14548 -1.99249,-0.4445 -1.99249,-0.4445 -0.74789,0.24517 -1.22484,1.05692 -0.67275,2.02035 0.58209,1.0153 1.43934,-0.62018 1.43934,-0.62018 0.27587,-0.14005 1.89371,0.10865 1.2259,-0.95567"
         style="fill:#00ffa3;fill-opacity:1;fill-rule:nonzero;stroke:none;stroke-width:0.0352777" />
      <path
         id="path161"
         d="m 106.07442,133.74223 c 0.71932,-1.14548 1.9932,-0.4445 1.9932,-0.4445 0.74753,0.24517 1.22449,1.05692 0.67239,2.02035 -0.58208,1.0153 -1.43933,-0.62018 -1.43933,-0.62018 -0.27587,-0.14005 -1.89371,0.10865 -1.22626,-0.95567"
         style="fill:#00ffa3;fill-opacity:1;fill-rule:nonzero;stroke:none;stroke-width:0.0352777" />
      <path
         id="path163"
         d="m 109.82763,134.90498 c 1.19591,-0.63218 1.94733,0.61277 1.94733,0.61277 0.52493,0.58632 0.53128,1.52824 -0.42863,2.08528 -1.01247,0.58807 -0.93591,-1.2573 -0.93591,-1.2573 -0.16863,-0.2593 -1.69369,-0.85373 -0.58279,-1.44075"
         style="fill:#00ffa3;fill-opacity:1;fill-rule:nonzero;stroke:none;stroke-width:0.0352777" />
    </g>
  </g>
</svg>
